<svg id="finndiff_logo" data-name="Finndiff Logo" xmlns="http://www.w3.org/2000/svg" viewBox="0 0 185 188"><defs><style>.cls-1{fill:#adefc6;}.cls-2{fill:#f7b9bc;}.cls-3{fill:#fdf0ed;}.cls-4{fill:#e7fef0;}</style></defs><path class="cls-1" d="M6.71,94H178.29a0,0,0,0,1,0,0v62.39a23.87,23.87,0,0,1-23.87,23.87H30.59A23.87,23.87,0,0,1,6.71,156.39V94A0,0,0,0,1,6.71,94Z"/><path class="cls-2" d="M30.59,7.74H154.41a23.87,23.87,0,0,1,23.87,23.87V94a0,0,0,0,1,0,0H6.71a0,0,0,0,1,0,0V31.61A23.87,23.87,0,0,1,30.59,7.74Z"/><path class="cls-3" d="M26.07,80.56V45l-3.77-.59a3.92,3.92,0,0,1-2-.85,2.19,2.19,0,0,1-.74-1.78V37.47h6.48V36.08a20.56,20.56,0,0,1,1.31-7.4,15.85,15.85,0,0,1,4-5.91,18.91,18.91,0,0,1,6.74-3.92,29.41,29.41,0,0,1,9.62-1.42c1.19,0,2.4.07,3.64.19a16.9,16.9,0,0,1,3.22.62l-.34,5.42a1.2,1.2,0,0,1-1.06,1.17,13.44,13.44,0,0,1-2.41.19,28,28,0,0,0-6.89.72,11.46,11.46,0,0,0-4.49,2.14,7.81,7.81,0,0,0-2.45,3.56,15,15,0,0,0-.75,5v1.06h27V80.56H52.68V44.93H36.53V80.56Z"/><path class="cls-3" d="M75.13,80.56V37.09h6.4A2.58,2.58,0,0,1,84.2,39l.72,3.43A24.63,24.63,0,0,1,87.69,40a19.37,19.37,0,0,1,3.1-1.9,15.35,15.35,0,0,1,3.49-1.23,18.48,18.48,0,0,1,4.07-.43,15.68,15.68,0,0,1,6.31,1.21,12.57,12.57,0,0,1,4.6,3.39,14.81,14.81,0,0,1,2.79,5.21,22,22,0,0,1,1,6.68V80.56H102.54V52.9a9.29,9.29,0,0,0-1.84-6.17,6.85,6.85,0,0,0-5.53-2.18,10.86,10.86,0,0,0-5.08,1.23,17.87,17.87,0,0,0-4.49,3.35V80.56Z"/><path class="cls-3" d="M123.3,80.56V37.09h6.4A2.57,2.57,0,0,1,132.37,39l.72,3.43A23.87,23.87,0,0,1,135.87,40a18.85,18.85,0,0,1,3.09-1.9,15.35,15.35,0,0,1,3.49-1.23,18.55,18.55,0,0,1,4.07-.43,15.64,15.64,0,0,1,6.31,1.21,12.57,12.57,0,0,1,4.6,3.39,15,15,0,0,1,2.8,5.21,22.37,22.37,0,0,1,1,6.68V80.56H150.71V52.9a9.29,9.29,0,0,0-1.84-6.17,6.85,6.85,0,0,0-5.53-2.18,10.89,10.89,0,0,0-5.08,1.23,18.05,18.05,0,0,0-4.49,3.35V80.56Z"/><path class="cls-4" d="M58,168.35a2.58,2.58,0,0,1-2.67-1.9l-.84-4.2A27.23,27.23,0,0,1,51.61,165a18.5,18.5,0,0,1-3.2,2.12,16.59,16.59,0,0,1-3.69,1.37,17.41,17.41,0,0,1-4.26.49,14.36,14.36,0,0,1-6.52-1.48,14.66,14.66,0,0,1-5.11-4.3,20.79,20.79,0,0,1-3.3-7,35.06,35.06,0,0,1-1.17-9.49,29.56,29.56,0,0,1,1.32-9,21.84,21.84,0,0,1,3.77-7.2,17.57,17.57,0,0,1,5.89-4.76,16.94,16.94,0,0,1,7.71-1.72,15.23,15.23,0,0,1,6.23,1.16,16.31,16.31,0,0,1,4.61,3.12v-23H64.36v62.95ZM44,160.69a10.72,10.72,0,0,0,5.55-1.36,16.21,16.21,0,0,0,4.32-3.86V136a10.29,10.29,0,0,0-3.87-3,11.48,11.48,0,0,0-4.51-.89,10.14,10.14,0,0,0-4.3.89,8.46,8.46,0,0,0-3.27,2.69,13.27,13.27,0,0,0-2,4.58,26.28,26.28,0,0,0-.72,6.55,29.09,29.09,0,0,0,.61,6.46,12.86,12.86,0,0,0,1.76,4.32,6.63,6.63,0,0,0,2.8,2.41A8.8,8.8,0,0,0,44,160.69Z"/><path class="cls-4" d="M88.47,112.22a6.07,6.07,0,0,1-.55,2.54,7,7,0,0,1-1.47,2.07,6.72,6.72,0,0,1-2.14,1.42,6.39,6.39,0,0,1-2.62.53,6.23,6.23,0,0,1-2.57-.53,6.8,6.8,0,0,1-3.51-3.49,6.06,6.06,0,0,1-.53-2.54,6.44,6.44,0,0,1,.53-2.63A6.53,6.53,0,0,1,77,107.47a7,7,0,0,1,2.09-1.42,6.39,6.39,0,0,1,2.57-.53,6.56,6.56,0,0,1,2.62.53,7.07,7.07,0,0,1,2.14,1.42,6.82,6.82,0,0,1,1.47,2.12A6.45,6.45,0,0,1,88.47,112.22ZM86.9,124.88v43.47H76.43V124.88Z"/><path class="cls-4" d="M104.06,168.35V132.76l-3.77-.59a3.92,3.92,0,0,1-2-.85,2.19,2.19,0,0,1-.74-1.78v-4.27h6.48v-3.22a18.79,18.79,0,0,1,1.12-6.7,13.85,13.85,0,0,1,3.22-5,14.1,14.1,0,0,1,5.11-3.18,19.66,19.66,0,0,1,6.77-1.1,18.67,18.67,0,0,1,5.6.81l-.21,5.25a1.51,1.51,0,0,1-1.15,1.52,9,9,0,0,1-2.46.3,12.85,12.85,0,0,0-3.32.4,5.64,5.64,0,0,0-2.48,1.4,6.43,6.43,0,0,0-1.55,2.63,13.33,13.33,0,0,0-.53,4v2.89H125.5v7.45h-11v35.63Z"/><path class="cls-4" d="M138.93,168.35V132.76l-3.77-.59a4,4,0,0,1-2-.85,2.22,2.22,0,0,1-.74-1.78v-4.27h6.49v-3.22a18.79,18.79,0,0,1,1.12-6.7,13.85,13.85,0,0,1,3.22-5,14.15,14.15,0,0,1,5.1-3.18,19.76,19.76,0,0,1,6.78-1.1,18.67,18.67,0,0,1,5.6.81l-.22,5.25a1.5,1.5,0,0,1-1.14,1.52,9.1,9.1,0,0,1-2.46.3,12.85,12.85,0,0,0-3.32.4,5.64,5.64,0,0,0-2.48,1.4,6.32,6.32,0,0,0-1.55,2.63,13.33,13.33,0,0,0-.53,4v2.89h11.31v7.45h-11v35.63Z"/></svg>