<svg xmlns="http://www.w3.org/2000/svg" id="finndiff_logo" data-name="Finndiff Logo" viewBox="0 0 185 188">
  <path fill="#adefc6" d="M6.7 94h171.6v62.4a23.9 23.9 0 0 1-23.9 23.9H30.6a23.9 23.9 0 0 1-23.9-24V94z"/>
  <path fill="#f7b9bc" d="M30.6 7.7h123.8a23.9 23.9 0 0 1 23.9 24V94H6.7V31.6A23.9 23.9 0 0 1 30.6 7.7z"/>
  <path fill="#ffffff" d="M26 80.6V45l-3.7-.6a4 4 0 0 1-2-.8 2.2 2.2 0 0 1-.7-1.8v-4.3H26V36a20.6 20.6 0 0 1 1.4-7.4 15.8 15.8 0 0 1 4-6A19 19 0 0 1 38 19a29.4 29.4 0 0 1 9.6-1.5l3.6.2a16.9 16.9 0 0 1 3.3.6l-.4 5.5a1.2 1.2 0 0 1-1 1.1 13.4 13.4 0 0 1-2.4.2 28 28 0 0 0-7 .7 11.5 11.5 0 0 0-4.4 2.2 7.8 7.8 0 0 0-2.5 3.5 15 15 0 0 0-.7 5v1.1h27v43H52.7V45H36.5v35.7zM75.1 80.6V37h6.4a2.6 2.6 0 0 1 2.7 1.9l.7 3.4a24.6 24.6 0 0 1 2.8-2.4 19.4 19.4 0 0 1 3-1.9 15.3 15.3 0 0 1 3.6-1.2 18.5 18.5 0 0 1 4-.5 15.7 15.7 0 0 1 6.4 1.3 12.6 12.6 0 0 1 4.6 3.3 14.8 14.8 0 0 1 2.7 5.3 22 22 0 0 1 1 6.6v27.7h-10.5V52.9a9.3 9.3 0 0 0-1.8-6.2 6.8 6.8 0 0 0-5.5-2.2 10.9 10.9 0 0 0-5.1 1.3 17.9 17.9 0 0 0-4.5 3.3v31.5zM123.3 80.6V37h6.4a2.6 2.6 0 0 1 2.7 1.9l.7 3.4a23.9 23.9 0 0 1 2.8-2.4 18.9 18.9 0 0 1 3-1.9 15.3 15.3 0 0 1 3.6-1.2 18.6 18.6 0 0 1 4-.5 15.6 15.6 0 0 1 6.3 1.3 12.6 12.6 0 0 1 4.6 3.3 15 15 0 0 1 2.8 5.3 22.4 22.4 0 0 1 1 6.6v27.7h-10.5V52.9a9.3 9.3 0 0 0-1.8-6.2 6.8 6.8 0 0 0-5.6-2.2 10.9 10.9 0 0 0-5 1.3 18 18 0 0 0-4.5 3.3v31.5z" class="cls-3"/>
  <path fill="#ffffff" d="M58 168.3a2.6 2.6 0 0 1-2.7-1.9l-.8-4.2a27.2 27.2 0 0 1-2.9 2.8 18.5 18.5 0 0 1-3.2 2.1 16.6 16.6 0 0 1-3.7 1.4 17.4 17.4 0 0 1-4.2.5 14.4 14.4 0 0 1-6.6-1.5 14.7 14.7 0 0 1-5-4.3 20.8 20.8 0 0 1-3.4-7 35 35 0 0 1-1.1-9.5 29.6 29.6 0 0 1 1.3-9 21.8 21.8 0 0 1 3.8-7.2 17.6 17.6 0 0 1 5.8-4.7A17 17 0 0 1 43 124a15.2 15.2 0 0 1 6.3 1.2 16.3 16.3 0 0 1 4.6 3.1v-23h10.5v63zm-14-7.6a10.7 10.7 0 0 0 5.5-1.4 16.2 16.2 0 0 0 4.4-3.8V136a10.3 10.3 0 0 0-3.9-3 11.5 11.5 0 0 0-4.5-.9 10.1 10.1 0 0 0-4.3.9 8.5 8.5 0 0 0-3.3 2.7 13.3 13.3 0 0 0-2 4.6 26.3 26.3 0 0 0-.7 6.5 29 29 0 0 0 .6 6.5 12.9 12.9 0 0 0 1.8 4.3 6.6 6.6 0 0 0 2.8 2.4 8.8 8.8 0 0 0 3.6.7zM88.5 112.2a6 6 0 0 1-.6 2.6 7 7 0 0 1-1.5 2 6.7 6.7 0 0 1-2 1.5 6.4 6.4 0 0 1-2.7.5 6.2 6.2 0 0 1-2.6-.5 6.8 6.8 0 0 1-3.5-3.5 6 6 0 0 1-.5-2.6 6.4 6.4 0 0 1 .5-2.6 6.5 6.5 0 0 1 1.4-2.1 7 7 0 0 1 2-1.5 6.4 6.4 0 0 1 2.7-.5 6.6 6.6 0 0 1 2.6.5 7 7 0 0 1 2.1 1.5 6.8 6.8 0 0 1 1.5 2 6.5 6.5 0 0 1 .6 2.7zM86.9 125v43.4H76.4V125zM104 168.3v-35.5l-3.7-.6a4 4 0 0 1-2-.9 2.2 2.2 0 0 1-.7-1.8v-4.2h6.4V122a18.8 18.8 0 0 1 1.2-6.7 13.8 13.8 0 0 1 3.2-5 14.1 14.1 0 0 1 5-3.1 19.7 19.7 0 0 1 6.9-1.1 18.7 18.7 0 0 1 5.6.8l-.3 5.2a1.5 1.5 0 0 1-1.1 1.6 9 9 0 0 1-2.5.2 12.8 12.8 0 0 0-3.3.4 5.6 5.6 0 0 0-2.5 1.4 6.4 6.4 0 0 0-1.5 2.7 13.3 13.3 0 0 0-.5 4v2.9h11.3v7.4h-11v35.7zM139 168.3v-35.5l-3.8-.6a4 4 0 0 1-2-.9 2.2 2.2 0 0 1-.8-1.8v-4.2h6.5V122a18.8 18.8 0 0 1 1.1-6.7 13.8 13.8 0 0 1 3.3-5 14.2 14.2 0 0 1 5-3.1 19.8 19.8 0 0 1 6.8-1.1 18.7 18.7 0 0 1 5.6.8l-.2 5.2a1.5 1.5 0 0 1-1.1 1.6 9.1 9.1 0 0 1-2.5.2 12.8 12.8 0 0 0-3.3.4 5.6 5.6 0 0 0-2.5 1.4 6.3 6.3 0 0 0-1.5 2.7 13.3 13.3 0 0 0-.6 4v2.9h11.3v7.4h-11v35.7z" class="cls-4"/>
</svg>
