<svg xmlns="http://www.w3.org/2000/svg" id="finndiff_logo" data-name="Finndiff Logo" viewBox="0 0 185 188">
  <path fill="#2B3D54" d="M30.6 7.7h123.8a23.9 23.9 0 0 1 23.9 24V94H6.7V31.6A23.9 23.9 0 0 1 30.6 7.7z"/>
  <path fill="#ffffff" d="M26 80.6V45l-3.7-.6a4 4 0 0 1-2-.8 2.2 2.2 0 0 1-.7-1.8v-4.3H26V36a20.6 20.6 0 0 1 1.4-7.4 15.8 15.8 0 0 1 4-6A19 19 0 0 1 38 19a29.4 29.4 0 0 1 9.6-1.5l3.6.2a16.9 16.9 0 0 1 3.3.6l-.4 5.5a1.2 1.2 0 0 1-1 1.1 13.4 13.4 0 0 1-2.4.2 28 28 0 0 0-7 .7 11.5 11.5 0 0 0-4.4 2.2 7.8 7.8 0 0 0-2.5 3.5 15 15 0 0 0-.7 5v1.1h27v43H52.7V45H36.5v35.7zM75.1 80.6V37h6.4a2.6 2.6 0 0 1 2.7 1.9l.7 3.4a24.6 24.6 0 0 1 2.8-2.4 19.4 19.4 0 0 1 3-1.9 15.3 15.3 0 0 1 3.6-1.2 18.5 18.5 0 0 1 4-.5 15.7 15.7 0 0 1 6.4 1.3 12.6 12.6 0 0 1 4.6 3.3 14.8 14.8 0 0 1 2.7 5.3 22 22 0 0 1 1 6.6v27.7h-10.5V52.9a9.3 9.3 0 0 0-1.8-6.2 6.8 6.8 0 0 0-5.5-2.2 10.9 10.9 0 0 0-5.1 1.3 17.9 17.9 0 0 0-4.5 3.3v31.5zM123.3 80.6V37h6.4a2.6 2.6 0 0 1 2.7 1.9l.7 3.4a23.9 23.9 0 0 1 2.8-2.4 18.9 18.9 0 0 1 3-1.9 15.3 15.3 0 0 1 3.6-1.2 18.6 18.6 0 0 1 4-.5 15.6 15.6 0 0 1 6.3 1.3 12.6 12.6 0 0 1 4.6 3.3 15 15 0 0 1 2.8 5.3 22.4 22.4 0 0 1 1 6.6v27.7h-10.5V52.9a9.3 9.3 0 0 0-1.8-6.2 6.8 6.8 0 0 0-5.6-2.2 10.9 10.9 0 0 0-5 1.3 18 18 0 0 0-4.5 3.3v31.5z" class="cls-3"/>
</svg>
