<?xml version="1.0" standalone="no"?>
<!DOCTYPE svg PUBLIC "-//W3C//DTD SVG 20010904//EN"
 "http://www.w3.org/TR/2001/REC-SVG-20010904/DTD/svg10.dtd">
<svg version="1.0" xmlns="http://www.w3.org/2000/svg"
 width="512.000000pt" height="512.000000pt" viewBox="0 0 512.000000 512.000000"
 preserveAspectRatio="xMidYMid meet">
<metadata>
Created by potrace 1.11, written by Peter Selinger 2001-2013
</metadata>
<g transform="translate(0.000000,512.000000) scale(0.100000,-0.100000)"
fill="#000000" stroke="none">
<path d="M663 5099 c-4 -4 -28 -9 -53 -13 -67 -8 -117 -24 -193 -62 -82 -42
-93 -50 -183 -139 -111 -111 -191 -274 -197 -407 -1 -10 -4 -18 -7 -18 -8 0
-5 -3798 3 -3830 4 -14 9 -34 11 -45 12 -62 31 -114 68 -188 53 -104 170 -226
271 -282 72 -40 184 -81 233 -86 16 -2 35 -8 43 -14 11 -7 13 -7 8 1 -3 6 0
11 8 11 8 0 12 -4 9 -9 -8 -13 41 -9 55 4 9 8 11 9 7 1 -8 -15 93 -16 113 0
11 8 13 9 8 0 -10 -15 92 -16 112 0 11 8 13 9 8 0 -10 -15 92 -16 112 0 11 8
13 9 8 0 -10 -15 92 -16 112 0 11 8 13 9 8 0 -10 -15 92 -16 112 0 11 8 13 9
8 0 -10 -15 92 -16 112 0 11 8 13 9 8 0 -10 -15 92 -16 112 0 11 8 13 9 8 0
-10 -15 92 -16 112 0 11 8 13 9 8 0 -10 -15 92 -16 112 0 11 8 13 9 8 0 -10
-15 92 -16 112 0 11 8 13 9 8 0 -10 -15 92 -16 112 0 11 8 13 9 8 0 -10 -15
92 -16 112 0 11 8 13 9 8 0 -10 -15 92 -16 112 0 11 8 13 9 8 0 -10 -15 92
-16 112 0 11 8 13 9 8 0 -10 -15 92 -16 112 0 11 8 13 9 8 0 -10 -15 92 -16
112 0 11 8 13 9 8 0 -10 -15 92 -16 112 0 11 8 13 9 8 0 -10 -15 92 -16 112 0
11 8 13 9 8 0 -10 -15 92 -16 112 0 11 8 13 9 8 0 -10 -15 92 -16 112 0 11 8
13 9 8 0 -10 -15 92 -16 112 0 11 8 13 9 8 0 -10 -15 92 -16 112 0 11 8 13 9
8 0 -10 -15 92 -16 112 0 11 8 13 9 8 0 -10 -15 92 -16 112 0 11 8 13 9 8 0
-10 -15 92 -16 112 0 11 8 13 9 8 0 -10 -15 92 -16 112 0 11 8 13 9 8 0 -10
-15 92 -16 112 0 11 8 13 9 8 0 -10 -15 92 -16 112 0 11 8 13 9 8 0 -10 -15
92 -16 112 0 11 8 13 9 8 0 -10 -15 92 -16 112 0 11 9 13 9 8 0 -9 -14 78 -16
103 -3 9 5 34 11 56 14 62 8 85 14 102 28 8 7 18 12 21 11 21 -9 167 78 226
134 86 82 162 202 192 301 19 63 18 62 27 116 3 21 9 42 12 47 3 5 -1 9 -8 9
-9 0 -9 3 -2 8 16 10 15 3754 0 3745 -6 -4 -5 1 3 10 7 9 9 17 4 17 -5 0 -9 8
-9 18 -6 163 -122 364 -277 482 -89 66 -230 126 -312 132 -19 1 -35 5 -35 8 0
11 -93 10 -108 -2 -10 -8 -13 -9 -9 -1 10 15 -92 16 -112 0 -11 -8 -13 -9 -8
0 10 15 -92 16 -112 0 -11 -8 -13 -9 -8 0 10 15 -92 16 -112 0 -11 -8 -13 -9
-8 0 10 15 -92 16 -112 0 -11 -8 -13 -9 -8 0 10 15 -92 16 -112 0 -11 -8 -13
-9 -8 0 10 15 -92 16 -112 0 -11 -8 -13 -9 -8 0 10 15 -92 16 -112 0 -11 -8
-13 -9 -8 0 10 15 -92 16 -112 0 -11 -8 -13 -9 -8 0 10 15 -92 16 -112 0 -11
-8 -13 -9 -8 0 10 15 -92 16 -112 0 -11 -8 -13 -9 -8 0 10 15 -92 16 -112 0
-11 -8 -13 -9 -8 0 10 15 -92 16 -112 0 -11 -8 -13 -9 -8 0 10 15 -92 16 -112
0 -11 -8 -13 -9 -8 0 10 15 -92 16 -112 0 -11 -8 -13 -9 -8 0 10 15 -92 16
-112 0 -11 -8 -13 -9 -8 0 10 15 -92 16 -112 0 -11 -8 -13 -9 -8 0 10 15 -92
16 -112 0 -11 -8 -13 -9 -8 0 10 15 -92 16 -112 0 -11 -8 -13 -9 -8 0 10 15
-92 16 -112 0 -11 -8 -13 -9 -8 0 10 15 -92 16 -112 0 -11 -8 -13 -9 -8 0 10
15 -92 16 -112 0 -11 -8 -13 -9 -8 0 10 15 -92 16 -112 0 -11 -8 -13 -9 -8 0
10 15 -92 16 -112 0 -11 -8 -13 -9 -8 0 10 15 -92 16 -112 0 -11 -8 -13 -9 -8
0 10 15 -92 16 -112 0 -11 -8 -13 -9 -8 0 10 15 -92 16 -112 0 -11 -8 -13 -9
-8 0 10 15 -92 16 -112 0 -11 -8 -13 -9 -8 0 10 15 -92 16 -112 0 -11 -8 -13
-9 -8 0 10 15 -92 16 -112 0 -11 -8 -13 -9 -8 0 10 15 -92 16 -112 0 -12 -9
-13 -9 -8 0 6 9 -2 12 -27 11 -19 -1 -39 -5 -43 -9z"/>
</g>
</svg>
